<?xml version="1.0" encoding="utf-8"?>
<!-- Generator: Adobe Illustrator 21.0.0, SVG Export Plug-In . SVG Version: 6.00 Build 0)  -->
<svg version="1.1" xmlns="http://www.w3.org/2000/svg" xmlns:xlink="http://www.w3.org/1999/xlink" x="0px" y="0px"
	 viewBox="0 0 512 151.7" style="enable-background:new 0 0 512 151.7;" xml:space="preserve">
<style type="text/css">
	.st0{display:none;}
	.st1{display:inline;}
	.st2{fill:#2D2A29;}
	.st3{fill:#FFFFFF;}
	.st4{fill:none;stroke:#FFFFFF;stroke-width:0.2;stroke-miterlimit:10;}
	.st5{clip-path:url(#SVGID_2_);fill:url(#SVGID_3_);}
	.st6{clip-path:url(#SVGID_5_);fill:url(#SVGID_6_);}
	.st7{clip-path:url(#SVGID_8_);fill:url(#SVGID_9_);}
	.st8{clip-path:url(#SVGID_11_);fill:url(#SVGID_12_);}
	.st9{clip-path:url(#SVGID_14_);fill:#2D2A29;}
	.st10{clip-path:url(#SVGID_14_);fill:#FFFFFF;}
	.st11{clip-path:url(#SVGID_16_);fill:url(#SVGID_17_);}
	.st12{clip-path:url(#SVGID_19_);fill:url(#SVGID_20_);}
	.st13{clip-path:url(#SVGID_22_);fill:url(#SVGID_23_);}
	.st14{clip-path:url(#SVGID_25_);fill:url(#SVGID_26_);}
</style>
<g id="Layer_1" class="st0">
	<g class="st1">
		<path class="st2" d="M223.1,88.8c-4.9,0-9.1,4-9.1,9.8c0,5.7,4.2,9.8,9.1,9.8c4.9,0,9.1-4,9.1-9.8C232.2,92.8,228,88.8,223.1,88.8
			z"/>
		<path class="st2" d="M386.3,73h-10.1v16.3h10.1c5.3,0,8.3-4.5,8.3-8.1C394.6,77.3,391.6,73,386.3,73z"/>
		<path class="st2" d="M293.6,88.8c-4.9,0-9,4.2-9,9.8c0,5.6,4.1,9.7,9,9.7c4.8,0,8.6-4.1,8.6-9.7C302.3,93,298.5,88.8,293.6,88.8z"
			/>
		<path class="st2" d="M339.3,88.7c-3.6,0-8.6,3.2-8.4,9.4l14.4-6C344.5,90.1,342.2,88.7,339.3,88.7z"/>
		<path class="st2" d="M258.4,88.8c-4.9,0-9.1,4-9.1,9.8c0,5.7,4.2,9.8,9.1,9.8c4.9,0,9.1-4,9.1-9.8
			C267.5,92.8,263.3,88.8,258.4,88.8z"/>
		<path class="st2" d="M270.8,47c2.4,0,4.5-0.9,6.2-2.6c1.7-1.7,2.5-3.9,2.5-6.5c0-2.6-0.8-4.8-2.5-6.5c-1.7-1.7-3.7-2.6-6.2-2.6
			c-2.4,0-4.5,0.9-6.2,2.6c-1.7,1.7-2.5,3.9-2.5,6.5c0,2.6,0.8,4.8,2.5,6.5C266.3,46.2,268.4,47,270.8,47z"/>
		<path class="st2" d="M493,0H19C8.5,0,0,8.5,0,19v113.8c0,10.4,8.5,19,19,19H493c10.4,0,19-8.5,19-19V19C512,8.5,503.5,0,493,0z
			 M286.6,26.5h3.6l11.1,17.7h0.1l-0.1-4.4V26.5h2.9v22.8h-3.1l-11.6-18.6h-0.1l0.1,4.4v14.2h-2.9V26.5z M262.5,29.5
			c2.2-2.3,5-3.4,8.3-3.4c3.3,0,6.1,1.2,8.3,3.5c2.2,2.3,3.4,5.1,3.4,8.4c0,3.3-1.1,6.1-3.4,8.4c-2.2,2.3-5,3.4-8.3,3.4
			s-6.1-1.1-8.3-3.4c-2.2-2.3-3.4-5.1-3.4-8.4C259.1,34.6,260.2,31.8,262.5,29.5z M227.3,26.5h2.9v22.8h-2.9V26.5z M184,26.5h13.3
			v2.8H187v7.2h9.3v2.7H187v7.2h10.4v2.8H184V26.5z M160.3,29.5c2.3-2.3,5.1-3.4,8.4-3.4c1.6,0,3.2,0.3,4.7,1
			c1.5,0.6,2.7,1.5,3.6,2.5l-2,2c-1.5-1.8-3.6-2.7-6.2-2.7c-2.4,0-4.5,0.8-6.2,2.5c-1.8,1.7-2.6,3.9-2.6,6.6s0.9,4.9,2.6,6.6
			c1.7,1.7,3.8,2.5,6.2,2.5c2.5,0,4.7-0.8,6.4-2.5c1.1-1.1,1.7-2.6,1.9-4.6h-8.3v-2.7h11c0.1,0.6,0.2,1.2,0.2,1.7
			c0,3.2-0.9,5.7-2.8,7.6c-2.1,2.2-4.9,3.4-8.4,3.4c-3.3,0-6.1-1.1-8.4-3.4c-2.3-2.3-3.4-5.1-3.4-8.5S158,31.7,160.3,29.5z
			 M198.5,107.7c-4.4,4.6-10,7-17.5,7c-13.8,0-25.4-11.2-25.4-25s11.6-25.1,25.4-25.1c7.6,0,13.1,3,17.2,6.9l-4.8,4.8
			c-2.9-2.7-6.9-4.9-12.3-4.9c-10.1,0-18,8.1-18,18.2c0,10.1,7.9,18.2,18,18.2c6.5,0,10.3-2.6,12.6-5c2-2,3.2-4.8,3.7-8.6h-16.4
			v-6.8h23c0.2,1.2,0.4,2.7,0.4,4.3C204.5,96.9,203.1,103.2,198.5,107.7z M200.4,29.3v-2.8H216v2.8h-6.4v20h-2.9v-20H200.4z
			 M223.1,114.8c-8.9,0-16.2-6.8-16.2-16.1c0-9.3,7.3-16.1,16.2-16.1c8.9,0,16.2,6.8,16.2,16.1C239.3,107.9,232,114.8,223.1,114.8z
			 M233.9,29.3v-2.8h15.6v2.8h-6.4v20h-2.9v-20H233.9z M258.4,114.8c-8.9,0-16.2-6.8-16.2-16.1c0-9.3,7.3-16.1,16.2-16.1
			c8.9,0,16.2,6.8,16.2,16.1C274.6,107.9,267.3,114.8,258.4,114.8z M308.5,112.4c0,11.9-7,16.8-15.3,16.8c-7.8,0-12.5-5.3-14.3-9.5
			l6.2-2.6c1.1,2.6,3.8,5.7,8.1,5.7c5.3,0,8.6-3.3,8.6-9.5v-2.3h-0.2c-1.6,2-4.6,3.7-8.5,3.7c-8.1,0-15.5-7-15.5-16.1
			c0-9.1,7.4-16.2,15.5-16.2c3.8,0,6.9,1.7,8.5,3.6h0.2v-2.6h6.7V112.4z M320.5,113.8h-7.1V66.4h7.1V113.8z M339.9,108.4
			c3.6,0,6.1-1.8,7.9-4.5l5.5,3.7c-1.8,2.6-6.1,7.1-13.4,7.1c-9.2,0-16-7.1-16-16.1c0-9.6,6.9-16.1,15.2-16.1
			c8.4,0,12.5,6.7,13.8,10.3l0.7,1.8l-21.6,8.9C333.7,106.8,336.3,108.4,339.9,108.4z M386.1,95.8h-9.9v18h-7.1V66.4h17
			c7.8,0,15.6,5.7,15.6,14.7S394,95.8,386.1,95.8z M412.6,113.8h-7.1V66.4h7.1V113.8z M444.4,113.7h-6.8V110h-0.2
			c-1.6,2.5-4.3,4.6-9,4.6c-6.2,0-11.8-4.1-11.8-10.4c0-7,6.9-10.7,13.7-10.7c3.4,0,6.1,1.1,7.4,1.8v-0.5c-0.1-3.9-3.8-6.1-7.4-6.1
			c-2.6,0-5.1,0.9-6.5,3.5l-6.3-2.6c2.2-5,7.5-7.3,12.6-7.3c8.1,0,14.4,4.7,14.4,13.1V113.7z M457.7,128.2h-7.4l7.2-16l-12.6-28.7
			h7.6L461,104h0.2l8.1-20.6h7.9L457.7,128.2z"/>
		<path class="st2" d="M423.6,104.4c0,2.9,3.2,4,5.6,4c4.1,0,7.9-3.1,8.4-7.5c-1.9-0.9-3.4-1.6-6.5-1.6
			C427.6,99.3,423.6,100.7,423.6,104.4z"/>
	</g>
	<g class="st1">
		<defs>
			<path id="SVGID_15_" d="M39.6,28.6c-1.1,1.2-1.8,3-1.8,5.3v83.9c0,2.3,0.6,4.2,1.8,5.3l0.3,0.3l47-47v-0.6v-0.6l-47-47L39.6,28.6
				z"/>
		</defs>
		<clipPath id="SVGID_2_">
			<use xlink:href="#SVGID_15_"  style="overflow:visible;"/>
		</clipPath>
		
			<linearGradient id="SVGID_3_" gradientUnits="userSpaceOnUse" x1="-112.3357" y1="480.4088" x2="-107.4876" y2="480.4088" gradientTransform="matrix(-13.1289 13.1289 -13.1289 -13.1289 4926.3232 7826.3765)">
			<stop  offset="0" style="stop-color:#4A96D1"/>
			<stop  offset="6.574450e-03" style="stop-color:#4B97D2"/>
			<stop  offset="0.2601" style="stop-color:#48B8E9"/>
			<stop  offset="0.4112" style="stop-color:#47BEEB"/>
			<stop  offset="0.5122" style="stop-color:#46C5EE"/>
			<stop  offset="0.7604" style="stop-color:#57C8E7"/>
			<stop  offset="1" style="stop-color:#5DC9E5"/>
		</linearGradient>
		<polygon class="st5" points="62.3,3.8 -9.7,75.9 62.3,147.9 134.4,75.9 		"/>
	</g>
	<g class="st1">
		<defs>
			<path id="SVGID_18_" d="M86.8,75.3v0.6v0.6l15.7,15.7l0.4-0.2l18.5-10.5c5.3-3,5.3-7.9,0-11l-18.5-10.5l-0.4-0.2L86.8,75.3z"/>
		</defs>
		<clipPath id="SVGID_5_">
			<use xlink:href="#SVGID_18_"  style="overflow:visible;"/>
		</clipPath>
		
			<linearGradient id="SVGID_6_" gradientUnits="userSpaceOnUse" x1="-114.556" y1="515.5278" x2="-109.708" y2="515.5278" gradientTransform="matrix(-18.9293 0 0 -18.9293 -2040.1499 9834.4521)">
			<stop  offset="0" style="stop-color:#FADD00"/>
			<stop  offset="0.4087" style="stop-color:#F9BA18"/>
			<stop  offset="0.4433" style="stop-color:#F9B819"/>
			<stop  offset="0.7754" style="stop-color:#F8A31D"/>
			<stop  offset="1" style="stop-color:#F79920"/>
		</linearGradient>
		<rect x="86.8" y="59.6" class="st6" width="39.9" height="32.4"/>
	</g>
	<g class="st1">
		<defs>
			<path id="SVGID_21_" d="M39.6,123.1c1.8,1.9,4.6,2.1,7.9,0.2l55.4-31.5l-16-16L39.6,123.1z"/>
		</defs>
		<clipPath id="SVGID_8_">
			<use xlink:href="#SVGID_21_"  style="overflow:visible;"/>
		</clipPath>
		
			<linearGradient id="SVGID_9_" gradientUnits="userSpaceOnUse" x1="-100.0639" y1="485.1994" x2="-95.2159" y2="485.1994" gradientTransform="matrix(-17.8039 17.8039 -17.8039 -17.8039 6947.5796 10501.0361)">
			<stop  offset="0" style="stop-color:#ED414B"/>
			<stop  offset="0.3941" style="stop-color:#DA3255"/>
			<stop  offset="1" style="stop-color:#C11E63"/>
		</linearGradient>
		<polygon class="st7" points="71.2,44.2 14.9,100.5 71.2,156.8 127.5,100.5 		"/>
	</g>
	<g class="st1">
		<defs>
			<path id="SVGID_24_" d="M39.6,28.6l47.3,47.3l16-16L47.5,28.4c-1.5-0.9-3-1.3-4.2-1.3C41.8,27.1,40.5,27.6,39.6,28.6"/>
		</defs>
		<clipPath id="SVGID_11_">
			<use xlink:href="#SVGID_24_"  style="overflow:visible;"/>
		</clipPath>
		
			<linearGradient id="SVGID_12_" gradientUnits="userSpaceOnUse" x1="-41.0141" y1="430.8741" x2="-36.1661" y2="430.8741" gradientTransform="matrix(7.9502 7.9502 -7.9502 7.9502 3775.6436 -3095.1624)">
			<stop  offset="0" style="stop-color:#2F9E74"/>
			<stop  offset="6.850000e-02" style="stop-color:#27A672"/>
			<stop  offset="0.4762" style="stop-color:#4BB76F"/>
			<stop  offset="0.8009" style="stop-color:#60BB6C"/>
			<stop  offset="1" style="stop-color:#68BE6B"/>
		</linearGradient>
		<polygon class="st8" points="15.2,51.5 71.2,107.5 127.3,51.5 71.2,-4.6 		"/>
	</g>
</g>
<g id="Layer_2">
	<g>
		<path class="st2" d="M328.8,36.8c-0.7-0.7-1.6-1-2.7-1c-1.5,0-2.6,0.6-3.5,1.8c-0.9,1.2-1.3,2.7-1.3,4.5c0,1.8,0.4,3.2,1.2,4.3
			c0.9,1.2,2,1.8,3.5,1.8c1.3,0,2.4-0.5,3.1-1.5c0.8-0.9,1.1-2,1.1-3.3v-3c0-0.5,0-0.9-0.1-1.3C330.1,38.2,329.6,37.4,328.8,36.8z"
			/>
		<path class="st2" d="M454.8,37.1c-0.7-1.1-1.7-1.7-3.2-1.7c-1.3,0-2.4,0.5-3.2,1.6c-0.7,0.9-1,1.9-1.2,3.1h8.3
			C455.6,39,455.4,37.9,454.8,37.1z"/>
		<path class="st2" d="M269.4,88.8c-2,0-3.8,0.7-5.4,2c-1.6,1.3-2.7,3.1-3.2,5.2c-0.3,1-0.4,1.8-0.4,2.5v6.1c0,2.6,0.8,4.9,2.4,6.7
			c1.6,1.8,3.7,2.7,6.3,2.7c3,0,5.4-1.2,7.1-3.5c1.7-2.3,2.5-5.4,2.5-9.3c0-3.5-0.8-6.5-2.4-8.8C274.7,90,272.4,88.8,269.4,88.8z"/>
		<path class="st2" d="M306.4,47.6c0.7-0.5,1.2-1.3,1.4-2.1c0.1-0.2,0.1-0.4,0.1-0.7V42c-4.4-0.1-6.6,1.1-6.6,3.6
			c0,0.9,0.3,1.6,0.8,2.1c0.5,0.5,1.2,0.7,1.9,0.7C304.8,48.4,305.6,48.2,306.4,47.6z"/>
		<path class="st2" d="M283.9,35.6c-1.6,0-2.8,0.7-3.6,2.1c-0.7,1.2-1.1,2.6-1.1,4.3c0,1.7,0.4,3.1,1.1,4.3c0.9,1.4,2.1,2.1,3.6,2.1
			c1.5,0,2.7-0.7,3.6-2.2c0.7-1.2,1.1-2.6,1.1-4.3c0-1.6-0.4-3.1-1.1-4.2C286.7,36.3,285.5,35.6,283.9,35.6z"/>
		<path class="st2" d="M179,45.5c1.7-1.7,2.5-4.2,2.5-7.4c0-2.9-0.8-5.1-2.3-6.7c-1.5-1.5-3.8-2.3-6.7-2.3c-1.3,0-2.3,0.1-3.2,0.3
			v18.5c0.5,0.1,1.4,0.1,2.7,0.1C175,48,177.4,47.2,179,45.5z"/>
		<path class="st2" d="M359.7,48.4c1.5,0,2.7-0.7,3.6-2.2c0.7-1.2,1.1-2.6,1.1-4.3c0-1.6-0.4-3.1-1.1-4.2c-0.8-1.4-2-2.1-3.6-2.1
			c-1.6,0-2.8,0.7-3.6,2.1c-0.7,1.2-1.1,2.6-1.1,4.3c0,1.7,0.4,3.1,1.1,4.3C357,47.7,358.2,48.4,359.7,48.4z"/>
		<path class="st2" d="M181.9,75.7h-0.2c-0.5,2.1-1.3,5.3-2.4,9.5l-4.2,13.2h13.6l-4.3-13.2C184,83.9,183.1,80.7,181.9,75.7z"/>
		<path class="st2" d="M199.2,35.6c-1.6,0-2.8,0.7-3.6,2.1c-0.7,1.2-1.1,2.6-1.1,4.3c0,1.7,0.4,3.1,1.1,4.3c0.9,1.4,2.1,2.1,3.6,2.1
			c1.5,0,2.7-0.7,3.6-2.2c0.7-1.2,1.1-2.6,1.1-4.3c0-1.6-0.4-3.1-1.1-4.2C201.9,36.3,200.7,35.6,199.2,35.6z"/>
		<path class="st2" d="M227.6,88.8c-2,0-3.8,0.7-5.4,2c-1.6,1.3-2.7,3.1-3.2,5.2c-0.3,1-0.4,1.8-0.4,2.5v6.1c0,2.6,0.8,4.9,2.4,6.7
			c1.6,1.8,3.7,2.7,6.3,2.7c3,0,5.4-1.2,7.1-3.5c1.7-2.3,2.5-5.4,2.5-9.3c0-3.5-0.8-6.5-2.4-8.8C232.9,90,230.5,88.8,227.6,88.8z"/>
		<path class="st2" d="M447.6,87.9c-2.6,0-4.8,1.1-6.4,3.3c-1.3,1.8-2.1,3.8-2.4,6.3h16.8c0.1-2.4-0.5-4.5-1.6-6.2
			C452.6,89,450.5,87.9,447.6,87.9z"/>
		<path class="st2" d="M493.8,0H17.9C8,0,0,8,0,17.9v115.8c0,9.9,8,18,17.9,18h475.8c9.9,0,18.2-8.1,18.2-18V17.9
			C512,8,503.7,0,493.8,0z M445.7,35.5c1.5-1.9,3.6-2.9,6.3-2.9c2.6,0,4.5,1,5.9,2.9c1.1,1.5,1.6,3.4,1.6,5.6c0,0.7,0,1.3-0.1,1.8
			h-11.9c0,1.8,0.6,3.1,1.7,4c1,0.8,2.3,1.3,3.9,1.3c1.8,0,3.4-0.3,4.8-0.8l0.6,2.8c-1.7,0.7-3.7,1.1-6,1.1c-2.8,0-4.9-0.8-6.5-2.4
			c-1.6-1.6-2.4-3.8-2.4-6.6C443.5,39.6,444.2,37.3,445.7,35.5z M377.7,33.1l0.2,2.8h0.1c0.5-0.9,1.1-1.6,2.1-2.2
			c1.1-0.7,2.3-1,3.6-1c1.7,0,3.1,0.5,4.2,1.6c1.4,1.3,2.1,3.3,2.1,5.9v10.7h-4V40.7c0-3.2-1.2-4.7-3.6-4.7c-1.2,0-2.1,0.4-2.9,1.3
			c-0.7,0.9-1.1,1.9-1.1,3.1v10.6h-4V38.2c0-1.6-0.1-3.3-0.1-5.1H377.7z M353.4,35.3c1.6-1.8,3.8-2.6,6.5-2.6c2.6,0,4.7,0.9,6.3,2.6
			c1.5,1.7,2.3,3.9,2.3,6.5c0,2.7-0.8,5-2.4,6.8c-1.6,1.8-3.8,2.7-6.5,2.7c-2.6,0-4.7-0.9-6.3-2.6c-1.6-1.7-2.3-3.9-2.3-6.6
			C351,39.4,351.8,37.1,353.4,35.3z M265.3,24.9h4v26.1h-4V24.9z M215.9,33.1l2,8.5c0.5,2,0.9,3.9,1.2,5.7h0.1
			c0.3-1.5,0.8-3.4,1.5-5.7l2.5-8.5h3.2l2.4,8.4c0.6,2,1.1,4,1.4,5.9h0.1c0.3-1.8,0.7-3.8,1.2-5.9l2.2-8.4h3.9l-5.6,17.9h-3.6
			l-2.3-7.8c-0.6-1.9-1.1-3.9-1.4-5.8h-0.1c-0.3,2-0.8,3.9-1.4,5.8l-2.5,7.8h-3.7l-5.3-17.9H215.9z M165.3,26.5
			c2.1-0.3,4.4-0.5,6.8-0.5c4.3,0,7.6,0.9,9.8,2.8c2.5,2.1,3.7,5.2,3.7,9.2c0,4.5-1.3,7.8-4,10.1c-2.5,2.1-6,3.1-10.6,3.1
			c-2.3,0-4.2-0.1-5.8-0.3V26.5z M92.8,31c3.5-4.1,9.4-7.2,14.2-7.4c0.6,5.7-1.6,11.4-4.9,15.5c-3.5,4.1-9,7.2-14.4,6.8
			C87,40.4,89.8,34.5,92.8,31z M120.5,108.3c-4,5.9-8.1,11.8-14.7,11.9c-6.4,0.2-8.6-3.8-16-3.8c-7.4,0-9.7,3.7-15.9,3.9
			c-6.3,0.2-11.1-6.3-15.2-12.2c-8.2-12-14.6-33.9-6-48.8c4.2-7.3,11.8-12,19.9-12.1c6.3-0.1,12.2,4.3,16,4.3c3.8,0,11-5.3,18.5-4.5
			c3.1,0.1,12,1.2,17.7,9.6c-0.5,0.3-10.6,6.2-10.5,18.4c0.1,14.7,12.8,19.5,13,19.5C127.2,94.9,125.2,101.6,120.5,108.3z
			 M194.8,119.5l-4.7-14.8h-16.4l-4.5,14.8h-8.4L177.1,69h10l16.3,50.5H194.8z M205.6,48.6c-1.6,1.8-3.8,2.7-6.5,2.7
			c-2.6,0-4.7-0.9-6.3-2.6c-1.6-1.7-2.3-3.9-2.3-6.6c0-2.8,0.8-5,2.4-6.8c1.6-1.8,3.8-2.6,6.5-2.6c2.6,0,4.7,0.9,6.3,2.6
			c1.5,1.7,2.3,3.9,2.3,6.5C207.9,44.6,207.1,46.9,205.6,48.6z M240.2,115.5c-3,3.2-6.7,4.8-11.2,4.8c-4.8,0-8.2-1.7-10.3-5.2h-0.1
			v19.2h-8.1V95.1c0-3.9-0.1-7.9-0.3-12h7.1l0.5,5.8h0.2c2.7-4.3,6.8-6.5,12.3-6.5c4.3,0,7.9,1.7,10.7,5.1c2.9,3.4,4.3,7.9,4.3,13.4
			C245.2,107,243.6,111.9,240.2,115.5z M247.9,37.3c-0.7,0.9-1.1,1.9-1.1,3.1v10.6h-4V38.2c0-1.6,0-3.3-0.1-5.1h3.5l0.2,2.8h0.1
			c0.5-0.9,1.2-1.6,2.1-2.2c1.1-0.7,2.3-1,3.6-1c1.7,0,3.1,0.5,4.2,1.6c1.4,1.3,2.1,3.3,2.1,5.9v10.7h-4V40.7c0-3.2-1.2-4.7-3.6-4.7
			C249.6,36,248.6,36.4,247.9,37.3z M282.1,115.5c-3,3.2-6.7,4.8-11.2,4.8c-4.8,0-8.2-1.7-10.3-5.2h-0.1v19.2h-8.1V95.1
			c0-3.9-0.1-7.9-0.3-12h7.1l0.4,5.8h0.2c2.7-4.3,6.8-6.5,12.3-6.5c4.3,0,7.9,1.7,10.7,5.1c2.9,3.4,4.3,7.9,4.3,13.4
			C287.1,107,285.4,111.9,282.1,115.5z M290.3,48.6c-1.6,1.8-3.8,2.7-6.6,2.7c-2.6,0-4.7-0.9-6.3-2.6c-1.6-1.7-2.3-3.9-2.3-6.6
			c0-2.8,0.8-5,2.4-6.8c1.6-1.8,3.8-2.6,6.5-2.6c2.6,0,4.7,0.9,6.3,2.6c1.5,1.7,2.3,3.9,2.3,6.5C292.7,44.6,291.9,46.9,290.3,48.6z
			 M297.2,46.1c0-2.2,0.9-3.8,2.7-5c1.8-1.2,4.4-1.7,7.7-1.7v-0.3c0-2.4-1.2-3.5-3.7-3.5c-1.8,0-3.3,0.4-4.7,1.3l-0.8-2.6
			c1.7-1,3.7-1.5,6.1-1.5c4.7,0,7,2.5,7,7.4v6.6c0,1.8,0.1,3.2,0.3,4.3h-3.6l-0.3-2.1H308c-1.2,1.6-3,2.5-5.2,2.5
			c-1.7,0-3.1-0.5-4.1-1.6C297.7,48.8,297.2,47.5,297.2,46.1z M329.4,115.8c-3.3,3-7.9,4.4-13.7,4.4c-5.4,0-9.8-1-13.1-3.1l1.9-6.7
			c3.6,2.1,7.4,3.2,11.7,3.2c3,0,5.4-0.7,7.1-2.1c1.7-1.4,2.5-3.2,2.5-5.5c0-2-0.7-3.8-2.1-5.2c-1.4-1.4-3.7-2.7-7-3.9
			c-8.8-3.3-13.2-8.1-13.2-14.5c0-4.1,1.5-7.6,4.6-10.2c3.1-2.6,7.2-4,12.4-4c4.6,0,8.4,0.8,11.5,2.4l-2,6.6
			c-2.8-1.5-6.1-2.3-9.7-2.3c-2.8,0-5.1,0.7-6.7,2.1c-1.3,1.2-2,2.8-2,4.6c0,2,0.8,3.6,2.3,4.9c1.3,1.2,3.8,2.5,7.3,3.9
			c4.3,1.8,7.5,3.8,9.6,6.1c2,2.3,3.1,5.3,3.1,8.8C333.9,109.6,332.4,113.1,329.4,115.8z M331,50.9l-0.2-2.9h-0.1
			c-1.1,2.2-3,3.3-5.7,3.3c-2.2,0-4-0.8-5.4-2.5c-1.4-1.7-2.1-3.9-2.1-6.6c0-2.9,0.8-5.2,2.3-7c1.5-1.7,3.3-2.5,5.5-2.5
			c2.4,0,4.1,0.8,5,2.4h0.1V24.9h4v21.3c0,1.7,0.1,3.3,0.2,4.8H331z M360.6,89.2h-8.9v17.7c0,4.5,1.6,6.7,4.7,6.7
			c1.4,0,2.6-0.1,3.6-0.4l0.2,6.1c-1.6,0.6-3.7,0.9-6.3,0.9c-3.2,0-5.7-1-7.5-2.9c-1.8-1.9-2.7-5.2-2.7-9.8V89.2h-5.3v-6.1h5.3v-6.7
			l7.9-2.4v9.1h8.9V89.2z M396.1,114.8c-3.3,3.7-7.8,5.5-13.3,5.5c-5.3,0-9.6-1.8-12.8-5.3c-3.2-3.5-4.8-8-4.8-13.4
			c0-5.6,1.6-10.3,4.9-13.9c3.3-3.6,7.7-5.4,13.2-5.4c5.3,0,9.6,1.8,12.9,5.3c3.1,3.4,4.6,7.9,4.6,13.3
			C400.8,106.6,399.2,111.2,396.1,114.8z M405.7,33.1h2.6v-3.3l3.9-1.2v4.4h4.4v3h-4.4v8.7c0,2.2,0.8,3.3,2.3,3.3
			c0.7,0,1.3-0.1,1.8-0.2l0.1,3c-0.8,0.3-1.8,0.4-3.1,0.4c-1.6,0-2.8-0.5-3.7-1.4c-0.9-1-1.3-2.6-1.3-4.8v-9h-2.6V33.1z M427.1,90.2
			c-0.8-0.1-1.7-0.2-2.5-0.2c-2.8,0-5,1.1-6.6,3.2c-1.3,1.9-2,4.3-2,7.2v19.1h-8.1l0.1-24.9c0-4.2-0.1-8-0.3-11.5h7l0.3,7h0.2
			c0.8-2.4,2.2-4.3,4-5.8c1.8-1.3,3.7-2,5.8-2c0.7,0,1.4,0.1,2,0.1V90.2z M426.3,38.8c-0.1,0.4-0.2,0.9-0.2,1.4v10.7h-4V24.9h4v10.8
			h0.1c1.3-2,3-2.9,5.4-2.9c1.6,0,3,0.5,4.1,1.6c1.3,1.3,2,3.3,2,6v10.6h-4V40.8c0-3.2-1.2-4.8-3.6-4.8
			C428.3,36,427,36.9,426.3,38.8z M463,103.2h-24.3c0.1,3.6,1.3,6.3,3.5,8.2c2,1.7,4.7,2.5,7.9,2.5c3.6,0,6.9-0.6,9.8-1.7l1.3,5.6
			c-3.4,1.5-7.5,2.2-12.2,2.2c-5.6,0-10.1-1.7-13.3-5c-3.2-3.3-4.8-7.8-4.8-13.4c0-5.5,1.5-10.1,4.5-13.7c3.1-3.9,7.4-5.8,12.7-5.8
			c5.2,0,9.2,1.9,11.9,5.8c2.1,3.1,3.2,6.9,3.2,11.5C463.3,101,463.2,102.2,463,103.2z"/>
		<path class="st2" d="M383,88.3c-3.3,0-5.7,1.5-7.4,4.4c-1.5,2.4-2.2,5.3-2.2,8.8c0,3.4,0.7,6.2,2.2,8.6c1.7,2.9,4.2,4.4,7.3,4.4
			c3.1,0,5.5-1.5,7.3-4.4c1.5-2.5,2.2-5.4,2.2-8.7s-0.7-6.2-2.2-8.6C388.6,89.7,386.2,88.3,383,88.3z"/>
	</g>
</g>
</svg>
